<?xml version="1.0" standalone="no"?>
<!DOCTYPE svg PUBLIC "-//W3C//DTD SVG 20010904//EN"
 "http://www.w3.org/TR/2001/REC-SVG-20010904/DTD/svg10.dtd">
<svg version="1.0" xmlns="http://www.w3.org/2000/svg"
 width="180.000000pt" height="180.000000pt" viewBox="0 0 180.000000 180.000000"
 preserveAspectRatio="xMidYMid meet">
<metadata>
Created by potrace 1.14, written by Peter Selinger 2001-2017
</metadata>
<g transform="translate(0.000000,180.000000) scale(0.100000,-0.100000)"
fill="#000000" stroke="none">
<path d="M272 1658 c9 -42 55 -263 139 -668 23 -107 43 -203 45 -212 14 -63
24 -107 30 -143 1 -11 5 -29 8 -40 3 -11 14 -67 26 -124 20 -93 21 -108 8
-135 -17 -36 -9 -87 17 -116 14 -15 29 -19 62 -17 23 1 43 6 43 10 0 5 5 5 10
2 6 -4 18 -1 27 7 9 7 14 9 11 3 -3 -5 0 -16 8 -23 8 -7 14 -9 14 -4 0 5 7 9
15 9 8 0 15 -4 15 -9 0 -4 8 0 18 10 21 19 19 34 -3 26 -8 -4 -13 -9 -11 -13
3 -4 -6 -7 -19 -7 -13 0 -21 4 -19 8 3 4 9 8 14 8 5 0 40 14 77 31 38 18 74
32 81 32 6 0 12 4 12 9 0 4 4 8 9 8 17 0 146 83 216 139 96 77 196 184 277
296 37 52 68 97 68 99 0 3 17 36 37 73 21 37 57 112 80 168 42 100 42 100 21
117 -11 10 -39 23 -61 29 -23 6 -224 81 -447 166 -223 86 -432 166 -465 178
-33 12 -120 46 -194 74 -73 28 -143 51 -156 51 -22 0 -22 -2 -13 -42z"/>
<path d="M955 271 c-3 -5 -2 -12 3 -15 5 -3 9 1 9 9 0 17 -3 19 -12 6z"/>
<path d="M1180 266 c0 -2 8 -10 18 -17 15 -13 16 -12 3 4 -13 16 -21 21 -21
13z"/>
<path d="M823 253 c4 -6 3 -14 -3 -18 -5 -3 -10 -1 -10 5 0 6 -5 8 -11 4 -8
-5 -8 -9 1 -14 8 -5 7 -9 -5 -14 -9 -3 -13 -11 -9 -17 5 -9 11 -6 21 6 7 11
13 15 13 11 0 -5 8 -2 17 5 15 12 16 12 10 -6 -6 -18 -6 -18 6 -3 12 15 14 15
25 0 10 -15 11 -15 5 2 -5 16 -4 17 16 6 13 -6 25 -9 29 -6 3 3 1 6 -5 6 -5 0
-20 9 -33 20 -13 11 -28 20 -34 19 -6 0 -6 -3 2 -6 6 -2 9 -9 6 -15 -3 -5 -15
-2 -27 9 -11 10 -17 13 -14 6z"/>
<path d="M1018 248 c5 -5 16 -8 23 -6 8 3 3 7 -10 11 -17 4 -21 3 -13 -5z"/>
<path d="M915 240 c26 -11 35 -12 35 -2 0 4 -12 8 -27 9 -24 1 -25 1 -8 -7z"/>
<path d="M976 235 c-9 -26 -7 -32 5 -12 6 10 9 21 6 23 -2 3 -7 -2 -11 -11z"/>
<path d="M1135 231 c-3 -5 -2 -12 3 -15 5 -3 9 1 9 9 0 17 -3 19 -12 6z"/>
<path d="M1095 220 c3 -5 8 -10 11 -10 2 0 4 5 4 10 0 6 -5 10 -11 10 -5 0 -7
-4 -4 -10z"/>
</g>
</svg>
